<svg width="188" height="195" viewBox="0 0 188 195" fill="none" xmlns="http://www.w3.org/2000/svg">
<path fill-rule="evenodd" clip-rule="evenodd" d="M66.762 0.465682C60.5914 1.58361 54.3022 4.1191 51.8536 6.47593C49.9513 8.30667 49.2331 9.87624 49.2194 12.2321C49.2053 14.6318 49.8124 16.5255 51.975 20.8306C52.8949 22.662 53.6474 24.5042 53.6474 24.9248C53.6474 26.0068 52.3817 26.8477 47.0929 29.2802C34.3288 35.1505 25.9288 40.7746 18.4951 48.4273C8.95861 58.2442 2.95846 70.6931 0.733053 85.2779C-0.489826 93.2926 -0.160541 104.22 1.55517 112.575C4.01966 124.575 9.48734 137.958 16.9523 150.263C21.5888 157.906 29.2447 168.425 29.5369 167.554C29.6068 167.345 29.3059 164.347 28.8683 160.89C24.901 129.563 23.8432 102.856 26.058 89.9308C27.1529 83.5402 30.643 75.6983 35.2611 69.251C40.3368 62.165 49.8505 53.4812 56.9059 49.4944C62.823 46.1505 67.5476 44.567 71.7502 44.5189C75.6158 44.4746 77.9867 45.6353 79.2255 48.1779C80.13 50.0353 80.0438 51.6127 78.9324 53.5386C77.3159 56.3403 73.524 58.9629 63.3259 64.3336C60.1519 66.0052 56.4299 68.0651 55.0547 68.9113C47.1959 73.7481 44.5295 77.9376 46.4649 82.4087C48.6004 87.3425 55.3272 87.8602 66.9124 83.9832L71.5942 82.4161L75.4956 82.5777C83.0258 82.8898 88.8318 85.4358 89.3812 88.6674C89.6886 90.4761 89.0762 92.1691 87.4729 93.9412C85.0209 96.6513 80.738 98.8261 68.7851 103.43C55.6665 108.483 49.7646 112.298 47.4422 117.228C46.7742 118.645 46.6391 119.38 46.6425 121.57C46.6497 126.125 48.0542 127.444 52.9108 127.457C55.9433 127.465 58.6347 126.984 66.8369 124.968C77.6234 122.317 81.9243 121.976 84.8957 123.538C87.6283 124.974 88.2101 128.582 86.2971 132.23C83.9996 136.61 80.095 140.686 68.473 150.835C59.9815 158.251 54.3768 163.578 51.893 166.594C43.766 176.463 44.0663 182.994 52.8855 188.201C59.381 192.036 67.6599 193.304 74.6673 191.538C78.5001 190.572 82.2552 188.63 84.7187 186.339C85.7934 185.34 87.7263 182.943 89.085 180.924C92.0232 176.557 94.8545 173.498 97.0914 172.272C101.422 169.9 107.235 172.241 109.503 177.272C109.882 178.113 110.614 180.754 111.128 183.143C111.643 185.531 112.423 188.288 112.861 189.268C114.912 193.854 119.58 195.636 127.36 194.801C133.722 194.119 137.702 192.562 140.69 189.586C143.112 187.173 144.22 184.813 144.41 181.664C144.617 178.215 144.106 177.118 140.412 173.072C137.197 169.553 136.671 168.818 136.671 167.857C136.671 166.854 137.614 166.345 141.665 165.161C146.502 163.746 148.777 162.864 152.679 160.89C167.783 153.246 180.824 138.04 185.199 122.97C187.159 116.218 187.984 107.077 188 91.947C188.012 79.6104 187.754 75.9688 186.294 67.8403C184.48 57.7448 181.318 48.8262 177.541 43.1531C176.825 42.0777 176.198 41.2402 176.148 41.292C176.097 41.3435 176.251 42.5725 176.489 44.0226C176.727 45.4727 177.064 49.0799 177.237 52.0385C178.378 71.4605 173.454 89.9574 163.676 102.982C158.641 109.689 146.908 121.837 137.451 130.134C125.081 140.987 113.885 147.348 108.621 146.511C104.321 145.828 101.884 141.228 103.838 137.485C104.774 135.693 107.125 133.435 110.035 131.533C111.38 130.653 117.33 127.499 123.257 124.522C135.288 118.479 138.796 116.348 141.574 113.397C143.763 111.071 144.284 109.813 144.101 107.294C143.771 102.761 139.816 100.636 133.122 101.395C131.555 101.573 127.112 102.42 123.25 103.279C112.986 105.56 109.362 105.646 106.991 103.663C105.045 102.036 104.581 99.1602 105.872 96.7261C107.421 93.8026 111.114 91.594 122.157 86.9852C134.387 81.8816 138.832 79.3834 142.573 75.5122C145.267 72.7233 146.433 70.1571 146.602 66.6414C146.835 61.7875 145.346 58.806 142.27 57.9706C139.737 57.2826 135.287 58.3779 128.995 61.2382C125.189 62.9684 119.278 65.3597 117.476 65.8982C114.837 66.687 111.523 66.6724 110.133 65.8656C105.391 63.1133 107.639 57.528 116.016 51.2497C119.067 48.963 123.315 46.331 128.501 43.5123C134.322 40.3493 136.189 38.4429 139.088 32.7007C141.75 27.4277 143.104 21.5741 142.838 16.4985C142.53 10.6405 140.404 7.48715 135.494 5.60522C129.067 3.142 122.885 2.76388 117.632 4.51242C113.338 5.94147 109.752 8.3774 103.118 14.3706C96.7774 20.0989 94.6042 21.3858 91.2963 21.3719C87.0746 21.3539 84.9335 18.735 83.4403 11.7628C82.288 6.38256 81.1665 3.96711 78.9418 2.07464C76.5825 0.0677076 72.1741 -0.51483 66.762 0.465682Z" fill="#A855F7"/>
</svg>
